<svg width="25" height="24" viewBox="0 0 25 24" fill="none" xmlns="http://www.w3.org/2000/svg">
<path d="M22.5708 6C21.8008 6.35 20.9708 6.58 20.1108 6.69C20.9908 6.16 21.6708 5.32 21.9908 4.31C21.1608 4.81 20.2408 5.16 19.2708 5.36C18.4808 4.5 17.3708 4 16.1108 4C13.7608 4 11.8408 5.92 11.8408 8.29C11.8408 8.63 11.8808 8.96 11.9508 9.27C8.39076 9.09 5.22076 7.38 3.11076 4.79C2.74076 5.42 2.53076 6.16 2.53076 6.94C2.53076 8.43 3.28076 9.75 4.44076 10.5C3.73076 10.5 3.07076 10.3 2.49076 10V10.03C2.49076 12.11 3.97076 13.85 5.93076 14.24C5.30148 14.4122 4.64085 14.4362 4.00076 14.31C4.27236 15.1625 4.80429 15.9084 5.52177 16.4429C6.23925 16.9775 7.1062 17.2737 8.00076 17.29C6.48439 18.4904 4.60475 19.1393 2.67076 19.13C2.33076 19.13 1.99076 19.11 1.65076 19.07C3.55076 20.29 5.81076 21 8.23076 21C16.1108 21 20.4408 14.46 20.4408 8.79C20.4408 8.6 20.4408 8.42 20.4308 8.23C21.2708 7.63 21.9908 6.87 22.5708 6Z" fill="#1DA1F2"/>
</svg>
