<svg width="25" height="24" viewBox="0 0 25 24" fill="none" xmlns="http://www.w3.org/2000/svg">
<path d="M19.3807 5.33C18.0507 4.71 16.6107 4.26 15.1107 4C15.0976 3.99958 15.0845 4.00205 15.0724 4.00723C15.0603 4.01241 15.0495 4.02019 15.0407 4.03C14.8607 4.36 14.6507 4.79 14.5107 5.12C12.9197 4.88 11.3017 4.88 9.71071 5.12C9.57071 4.78 9.36071 4.36 9.17071 4.03C9.16071 4.01 9.13071 4 9.10071 4C7.60071 4.26 6.17071 4.71 4.83071 5.33C4.82071 5.33 4.81071 5.34 4.80071 5.35C2.08071 9.42 1.33071 13.38 1.70071 17.3C1.70071 17.32 1.71071 17.34 1.73071 17.35C3.53071 18.67 5.26071 19.47 6.97071 20C7.00071 20.01 7.03071 20 7.04071 19.98C7.44071 19.43 7.80071 18.85 8.11071 18.24C8.13071 18.2 8.11071 18.16 8.07071 18.15C7.50071 17.93 6.96071 17.67 6.43071 17.37C6.39071 17.35 6.39071 17.29 6.42071 17.26C6.53071 17.18 6.64071 17.09 6.75071 17.01C6.77071 16.99 6.80071 16.99 6.82071 17C10.2607 18.57 13.9707 18.57 17.3707 17C17.3907 16.99 17.4207 16.99 17.4407 17.01C17.5507 17.1 17.6607 17.18 17.7707 17.27C17.8107 17.3 17.8107 17.36 17.7607 17.38C17.2407 17.69 16.6907 17.94 16.1207 18.16C16.0807 18.17 16.0707 18.22 16.0807 18.25C16.4007 18.86 16.7607 19.44 17.1507 19.99C17.1807 20 17.2107 20.01 17.2407 20C18.9607 19.47 20.6907 18.67 22.4907 17.35C22.5107 17.34 22.5207 17.32 22.5207 17.3C22.9607 12.77 21.7907 8.84 19.4207 5.35C19.4107 5.34 19.4007 5.33 19.3807 5.33ZM8.63071 14.91C7.60071 14.91 6.74071 13.96 6.74071 12.79C6.74071 11.62 7.58071 10.67 8.63071 10.67C9.69071 10.67 10.5307 11.63 10.5207 12.79C10.5207 13.96 9.68071 14.91 8.63071 14.91ZM15.6007 14.91C14.5707 14.91 13.7107 13.96 13.7107 12.79C13.7107 11.62 14.5507 10.67 15.6007 10.67C16.6607 10.67 17.5007 11.63 17.4907 12.79C17.4907 13.96 16.6607 14.91 15.6007 14.91Z" fill="white"/>
</svg>
