<svg width="25" height="24" viewBox="0 0 25 24" fill="none" xmlns="http://www.w3.org/2000/svg">
<path d="M12.1107 2C10.7975 2 9.49714 2.25866 8.28388 2.7612C7.07063 3.26375 5.96824 4.00035 5.03965 4.92893C3.16429 6.8043 2.11072 9.34784 2.11072 12C2.11072 16.42 4.98072 20.17 8.95072 21.5C9.45072 21.58 9.61072 21.27 9.61072 21V19.31C6.84072 19.91 6.25072 17.97 6.25072 17.97C5.79072 16.81 5.14072 16.5 5.14072 16.5C4.23072 15.88 5.21072 15.9 5.21072 15.9C6.21072 15.97 6.74072 16.93 6.74072 16.93C7.61072 18.45 9.08072 18 9.65072 17.76C9.74072 17.11 10.0007 16.67 10.2807 16.42C8.06072 16.17 5.73072 15.31 5.73072 11.5C5.73072 10.39 6.11072 9.5 6.76072 8.79C6.66072 8.54 6.31072 7.5 6.86072 6.15C6.86072 6.15 7.70072 5.88 9.61072 7.17C10.4007 6.95 11.2607 6.84 12.1107 6.84C12.9607 6.84 13.8207 6.95 14.6107 7.17C16.5207 5.88 17.3607 6.15 17.3607 6.15C17.9107 7.5 17.5607 8.54 17.4607 8.79C18.1107 9.5 18.4907 10.39 18.4907 11.5C18.4907 15.32 16.1507 16.16 13.9207 16.41C14.2807 16.72 14.6107 17.33 14.6107 18.26V21C14.6107 21.27 14.7707 21.59 15.2807 21.5C19.2507 20.16 22.1107 16.42 22.1107 12C22.1107 10.6868 21.8521 9.38642 21.3495 8.17317C20.847 6.95991 20.1104 5.85752 19.1818 4.92893C18.2532 4.00035 17.1508 3.26375 15.9376 2.7612C14.7243 2.25866 13.4239 2 12.1107 2Z" fill="black"/>
</svg>
